<svg width="16" height="16" fill="currentColor" version="1.1" viewBox="0 0 16 16" xmlns="http://www.w3.org/2000/svg">
  <path d="m8 0.55078c-0.24445 0-0.48818 0.093174-0.67188 0.27734l-6.089 6.0882c-0.088964 0.090166-0.18884 0.33169-0.18838 0.58366v6.998c0 0.51934 0.42988 0.95117 0.94922 0.95117h4.2012c0.51934 0 0.94922-0.43183 0.94922-0.95117v-3.5488h1.6992v3.5488c0 0.51934 0.42988 0.95117 0.94922 0.95117h4.2012c0.51934 0 0.94922-0.43183 0.94922-0.95117v-7c-4.9e-5 -0.25129-0.09986-0.49199-0.1886-0.58193l-1.4423-1.4415-4.6465-4.6465c-0.1837-0.18417-0.42742-0.27734-0.67188-0.27734zm0 2.1504 5.1836 5.0605v5.9199h-2.5664v-3.6836c0-0.18725-0.02762-0.41824-0.21289-0.60352-0.18527-0.18527-0.41822-0.21289-0.60547-0.21289h-3.5977c-0.18729 0-0.41788 0.024064-0.60547 0.20898-0.18759 0.18492-0.21754 0.42715-0.21289 0.61914v3.6719h-2.5664v-5.9199z"/>
</svg>
