<svg width="16" height="16" fill="#fff" viewBox="0 0 16 16" xmlns="http://www.w3.org/2000/svg">
  <path d="m8.354 1.146c-0.19536-0.19586-0.51264-0.19586-0.708 0l-6 6c-0.093714 0.093951-0.14624 0.2213-0.146 0.354v7c0 0.27614 0.22386 0.5 0.5 0.5h4.5c0.27614 0 0.5-0.22386 0.5-0.5v-4h2v4c0 0.27614 0.22386 0.5 0.5 0.5h4.5c0.27614 0 0.5-0.22386 0.5-0.5v-7c2.37e-4 -0.1327-0.052286-0.26005-0.146-0.354l-1.354-1.353-2-2zm-5.9873 12.987v-6.5597l5.6333-5.5 5.6333 5.5v6.5597h-3.7667v-4.1333c0-0.27614-0.090527-0.36667-0.36667-0.36667h-3c-0.27614 0-0.36667 0.090527-0.36667 0.36667v4.1333z"/>
</svg>
