<svg width="16" height="16" fill="currentColor" version="1.1" viewBox="0 0 16 16" xmlns="http://www.w3.org/2000/svg">
  <path d="m1.7 15a0.7 0.69999 0 0 1-0.7-0.69999v-12.6a0.7 0.69999 0 0 1 1.4 0v12.6a0.7 0.69999 0 0 1-0.7 0.69999zm8.75-13.906a0.7 0.69999 0 0 0-1.05 0.60619v12.6a0.7 0.69999 0 0 0 0.7 0.69999h4.2a0.7 0.69999 0 0 0 0.7-0.69999v-10.175a0.7 0.69999 0 0 0-0.35-0.60619zm-4.55-0.093798a0.7 0.69999 0 0 0-0.7 0.69999v12.6a0.7 0.69999 0 1 0 1.4 0v-12.6a0.7 0.69999 0 0 0-0.7-0.69999z" stroke-width=".7"/>
</svg>
