<svg width="16" height="16" fill="currentColor" version="1.1" viewBox="0 0 16 16" xmlns="http://www.w3.org/2000/svg">
  <path d="m9.75 1.0938a0.7 0.69998 0 0 1 0.7 0l4.2 2.4247a0.7 0.69998 0 0 1 0.35 0.60618v10.175a0.7 0.69998 0 0 1-0.7 0.69998h-4.2a0.7 0.69998 0 0 1-0.7-0.69998v-12.6a0.7 0.69998 0 0 1 0.35-0.60618zm1.05 1.8186v10.688h2.8v-9.071zm-9.1 12.088a0.7 0.69998 0 0 1-0.7-0.69998v-12.6a0.7 0.69998 0 0 1 1.4 0v12.6a0.7 0.69998 0 0 1-0.7 0.69998zm4.2 0a0.7 0.69998 0 0 1-0.7-0.69998v-12.6a0.7 0.69998 0 0 1 1.4 0v12.6a0.7 0.69998 0 0 1-0.7 0.69998z"/>
</svg>
