<svg width="16" height="16" fill="#fff" viewBox="0 0 16 16" xmlns="http://www.w3.org/2000/svg">
  <path d="m8 2.9312-0.717-0.78613c-1.683-1.8453-4.769-1.2085-5.883 1.1115-0.523 1.0912-0.641 2.6667 0.314 4.6773 0.92 1.936 2.834 4.2549 6.286 6.7808 3.452-2.5259 5.365-4.8448 6.286-6.7808 0.955-2.0117 0.838-3.5861 0.314-4.6773-1.114-2.32-4.2-2.9579-5.883-1.1125zm0 13.069c-15.333-10.807-4.721-19.243-0.176-14.781 0.06 0.058666 0.119 0.11947 0.176 0.1824a3.12 3.328 0 0 1 0.176-0.18133c4.544-4.4651 15.157 3.9712-0.176 14.78z"/>
</svg>
