<svg width="16" height="16" fill="currentColor" version="1.1" viewBox="0 0 16 16" xmlns="http://www.w3.org/2000/svg">
  <path d="m8 0.4795c-0.83991-8.035e-5 -1.6845 0.28343-2.3325 0.87906-0.64799 0.59563-1.0797 1.501-1.1179 2.6482-0.029322 0.86233 0.038334 1.4574 0.27902 2.0639 0.22348 0.56319 0.60533 1.1666 1.1288 2.0493-0.0036696 0.10312-0.031021 0.21061-0.19513 0.39191-0.18405 0.20333-0.49584 0.44658-0.88265 0.70874-0.77363 0.52432-1.8427 1.1377-2.8413 1.9742l-0.02006 0.01648-0.018236 0.02014c-0.62627 0.65818-1.0431 1.788-1.0431 4.2891h0.93372c0-2.3846 0.37471-3.2001 0.77871-3.6298 0.9098-0.7559 1.921-1.3441 2.7319-1.8936 0.41036-0.27812 0.77113-0.54485 1.0504-0.85342 0.2793-0.30856 0.49085-0.69896 0.45956-1.1391l-0.0072946-0.10988-0.056534-0.095231c-0.59988-1.0179-0.96107-1.5988-1.1507-2.0768-0.18966-0.47798-0.24075-0.87764-0.21337-1.683v-0.00183c0.03111-0.93487 0.35662-1.5655 0.81518-1.987 0.45856-0.42151 1.071-0.63371 1.7015-0.63365 0.63054 6.03e-5 1.2429 0.2121 1.7015 0.63365 0.45858 0.42155 0.78407 1.054 0.81518 1.9889 0.02739 0.80539-0.02371 1.205-0.21337 1.683-0.18966 0.47798-0.55085 1.0589-1.1507 2.0768l-0.056534 0.095231-0.00729 0.11171c-0.031283 0.44015 0.18026 0.82872 0.45956 1.1373 0.2793 0.30856 0.64008 0.5753 1.0504 0.85342 0.81046 0.54929 1.8205 1.1382 2.73 1.8936 0.40447 0.42933 0.78053 1.2428 0.78053 3.6298h0.93372c0-2.501-0.41687-3.6309-1.0431-4.2891l-0.01823-0.02014-0.02006-0.01648c-0.99856-0.83656-2.0677-1.4499-2.8413-1.9742-0.38681-0.26216-0.6986-0.50358-0.88265-0.70691-0.16418-0.18137-0.1915-0.29059-0.19513-0.39374 0.52352-0.8827 0.90538-1.4861 1.1288-2.0493 0.24068-0.60657 0.30834-1.2016 0.27902-2.0639-0.038172-1.1471-0.46993-2.0525-1.1179-2.6482-0.64797-0.59566-1.4926-0.87897-2.3325-0.87906z" />
</svg>
