<svg width="16" height="16" fill="currentColor" version="1.1" viewBox="0 0 16 16" xmlns="http://www.w3.org/2000/svg">
  <path d="m8 0.55078c-0.24445 0-0.48818 0.093174-0.67188 0.27734l-6.0898 6.0879c-0.088964 0.090166-0.18796 0.33202-0.1875 0.58398v6.998c0 0.51934 0.42988 0.95117 0.94922 0.95117h4.2012c0.51934 0 0.94922-0.43183 0.94922-0.95117v-3.5488h1.6992v3.5488c0 0.51934 0.42988 0.95117 0.94922 0.95117h4.2012c0.51934 0 0.94922-0.43183 0.94922-0.95117v-7c-4.9e-5 -0.25129-0.10071-0.49209-0.18945-0.58203l-6.0879-6.0879c-0.1837-0.18417-0.42742-0.27734-0.67188-0.27734z" />
</svg>
