<svg width="16" height="16" fill="currentColor" version="1.1" viewBox="0 0 16 16" xmlns="http://www.w3.org/2000/svg">
  <path d="m6.9865 3.6267c1.853 0 3.36 1.507 3.36 3.36s-1.507 3.36-3.36 3.36-3.36-1.507-3.36-3.36 1.507-3.36 3.36-3.36zm2e-7 -2.6267c-3.3011 0-5.9865 2.6855-5.9865 5.9865 0 3.3009 2.6854 5.9865 5.9865 5.9865a5.9511 5.9508 0 0 0 3.6659-1.2615l3.2885 3.2885 1.0591-1.0573-3.2904-3.2904a5.9511 5.9508 0 0 0 1.2651-3.6659c0-3.3009-2.6872-5.9865-5.9883-5.9865zm0 1.4966c2.4764 0 4.4917 2.0135 4.4917 4.4898 0 2.4762-2.0153 4.4917-4.4917 4.4917-2.4764 0-4.4898-2.0153-4.4898-4.4917 0-2.4762 2.0134-4.4898 4.4898-4.4898z"/>
</svg>
