<svg width="16" height="16" fill="currentColor" version="1.1" viewBox="0 0 16 16" xmlns="http://www.w3.org/2000/svg">
  <path d="m6.9871 12.973a5.9511 5.9508 0 0 0 3.6648-1.2632l3.2899 3.2897 1.0582-1.0581-3.2899-3.2897a5.9511 5.9508 0 0 0 1.264-3.6654c0-3.3009-2.6859-5.9868-5.9871-5.9868-3.3011 0-5.9871 2.6858-5.9871 5.9868 0 3.3009 2.6859 5.9868 5.9871 5.9868zm0-10.477c2.4764 0 4.4903 2.0138 4.4903 4.4901 0 2.4762-2.0139 4.4901-4.4903 4.4901-2.4764 0-4.4903-2.0138-4.4903-4.4901 0-2.4762 2.0139-4.4901 4.4903-4.4901z" />
</svg>
