<?xml version="1.0" encoding="UTF-8"?>
<!-- Created with Inkscape (http://www.inkscape.org/) -->
<svg width="60" height="60" version="1.1" viewBox="0 0 15.875 15.875" xmlns="http://www.w3.org/2000/svg">
 <g fill="none" stroke="#f5f5f5" stroke-width=".75668">
  <path d="m8.8624 7.9179s-0.12175 0.58746 0 0.85359c0.49696 1.0863 4.9674 2.5123 5.6373 3.081 0.66995 0.56872 0.99868 3.9862 0.99868 3.9862"/>
  <path d="m7.0126 7.9179s0.12174 0.58745 0 0.85358c-0.49695 1.0863-4.9673 2.5123-5.6373 3.081-0.66994 0.56871-0.99867 3.9862-0.99867 3.9862"/>
  <path d="m7.9375 0.37942s-1.5367-0.049682-2.1044 0.52253c-0.68577 0.69127-1.1517 1.9346-1.1344 3.0748 0.019149 1.2621 0.60699 2.5549 1.3579 3.3341 0.28969 0.30061 1.0473 0.88987 1.0473 0.88987"/>
  <path d="m7.9375 0.37942s1.5367-0.049682 2.1044 0.52253c0.68577 0.69127 1.1517 1.9346 1.1344 3.0748-0.019149 1.2621-0.60698 2.5549-1.3579 3.3341-0.28969 0.30061-1.036 0.88987-1.036 0.88987"/>
 </g>
</svg>
